<?xml version="1.0" standalone="no"?>
<!DOCTYPE svg PUBLIC "-//W3C//DTD SVG 20010904//EN"
 "http://www.w3.org/TR/2001/REC-SVG-20010904/DTD/svg10.dtd">
<svg version="1.0" xmlns="http://www.w3.org/2000/svg"
 width="512.000000pt" height="512.000000pt" viewBox="0 0 512.000000 512.000000"
 preserveAspectRatio="xMidYMid meet">

<g transform="translate(0.000000,512.000000) scale(0.100000,-0.100000)"
fill="#000000" stroke="none">
<path d="M2355 4106 c-343 -57 -637 -208 -875 -449 -127 -129 -293 -368 -276
-396 6 -8 468 -370 493 -385 9 -5 18 7 30 36 112 279 351 491 644 570 70 19
108 22 229 22 127 -1 156 -4 233 -28 112 -33 206 -81 292 -147 l67 -51 222
221 221 222 -45 40 c-169 149 -431 278 -675 331 -117 26 -441 34 -560 14z"/>
<path d="M2600 2540 l0 -300 420 0 c375 0 420 -2 420 -16 0 -29 -51 -168 -80
-219 -39 -68 -107 -148 -166 -197 -27 -22 -49 -44 -49 -49 0 -9 473 -379 486
-379 4 0 39 35 77 79 205 232 324 502 367 828 18 134 18 331 2 458 l-12 90
-732 3 -733 2 0 -300z"/>
</g>
</svg>
