<svg width="60" height="60" viewBox="0 0 60 60" fill="none" xmlns="http://www.w3.org/2000/svg">
<circle cx="30" cy="30" r="30" fill="black"/>
<path d="M14.3206 35.4962C16.3593 35.4962 17.9356 33.9227 17.9356 31.5943V22.5322H20.1422V37.2163H17.9566V35.8527C16.9688 36.8805 15.6028 37.4678 14.0682 37.4678C10.9151 37.4678 8.49786 35.1814 8.49786 31.7216V22.5346H10.7045V31.5943C10.7045 33.9647 12.2598 35.4962 14.3199 35.4962" fill="white"/>
<path d="M21.7828 22.5324H23.9056V27.8815C24.4007 27.3754 24.9925 26.9735 25.6459 26.6997C26.2993 26.4258 27.0012 26.2855 27.7099 26.287C30.863 26.287 33.343 28.7834 33.343 31.888C33.343 34.9717 30.863 37.4677 27.7099 37.4677C26.9978 37.4696 26.2925 37.3296 25.6353 37.0559C24.9781 36.7821 24.3823 36.3802 23.8828 35.8736V37.2155H21.7797L21.7828 22.5324ZM27.563 35.601C29.5811 35.601 31.2415 33.9436 31.2415 31.888C31.2415 29.8112 29.5811 28.175 27.563 28.175C25.524 28.175 23.8635 29.8112 23.8635 31.888C23.8635 33.9436 25.503 35.601 27.563 35.601Z" fill="white"/>
<path d="M39.6917 26.3083C42.7813 26.3083 45.0517 28.6786 45.0517 31.8673V32.5596H36.3297C36.6241 34.3006 38.0743 35.6013 39.881 35.6013C41.1222 35.6013 42.1724 35.0975 42.9709 34.0278L44.5055 35.1605C43.4333 36.5871 41.8359 37.4469 39.881 37.4469C36.6652 37.4469 34.1848 35.0556 34.1848 31.8673C34.1848 28.8466 36.56 26.3083 39.692 26.3083H39.6917ZM36.3707 30.8815H42.9078C42.5506 29.245 41.2263 28.1543 39.65 28.1543C38.0736 28.1543 36.7493 29.245 36.3707 30.8815Z" fill="white"/>
<path d="M50.7474 28.4061C49.36 28.4061 48.3511 29.4759 48.3511 31.133V37.2164H46.228V26.5181H48.3311V27.8408C48.8566 26.9806 49.7185 26.4352 50.8956 26.4352H51.6311V28.4072L50.7474 28.4061Z" fill="white"/>
</svg>
